<svg width="24" height="24" viewBox="0 0 24 24" fill="none" xmlns="http://www.w3.org/2000/svg">
<g id="CaptureSVG" clip-path="url(#clip0_8_244)">
<g id="icon-capture.4bcfee25 (1) 1">
<g id="LeftTopCorner">
<path id="Vector" d="M4.94673 3.39237C5.01866 3.38985 5.09035 3.40212 5.15732 3.42841C5.22429 3.45469 5.28512 3.49445 5.33602 3.54518C5.38692 3.59592 5.42679 3.65655 5.45316 3.72331C5.47954 3.79007 5.49184 3.86153 5.48932 3.93323C5.48932 4.07667 5.43215 4.21424 5.3304 4.31567C5.22864 4.4171 5.09063 4.47408 4.94673 4.47408C4.8364 4.47408 4.7306 4.51777 4.65258 4.59553C4.57457 4.6733 4.53075 4.77877 4.53075 4.88874C4.53075 5.03219 4.47358 5.16975 4.37183 5.27118C4.27007 5.37261 4.13207 5.4296 3.98816 5.4296C3.8457 5.42509 3.7103 5.36665 3.60951 5.26618C3.50872 5.16572 3.4501 5.03075 3.44557 4.88874C3.44557 4.49188 3.60373 4.11127 3.88525 3.83065C4.16677 3.55002 4.5486 3.39237 4.94673 3.39237Z" fill="#F77041"/>
<path id="Vector_2" fill-rule="evenodd" clip-rule="evenodd" d="M5.01435 3.79265C4.99724 3.78594 4.97888 3.78279 4.96043 3.78343L4.94674 3.39237V3.78367C4.65199 3.78367 4.36956 3.9004 4.16151 4.10778C3.95532 4.31332 3.83892 4.59119 3.83691 4.88112C3.83938 4.92155 3.85661 4.95998 3.88577 4.98905C3.91465 5.01784 3.95319 5.03536 3.99425 5.03818C4.03252 5.03666 4.06871 5.02083 4.09559 4.99404C4.12382 4.96589 4.13945 4.928 4.13945 4.88874C4.13945 4.67459 4.2248 4.46945 4.37634 4.3184C4.52783 4.16739 4.73303 4.08277 4.94674 4.08277C4.98726 4.08277 5.02588 4.06672 5.05415 4.03853C5.08239 4.01038 5.09802 3.97248 5.09802 3.93323V3.92634L5.09826 3.91945C5.09889 3.90159 5.09583 3.88376 5.08924 3.86708C5.08264 3.85039 5.07264 3.83514 5.05978 3.82232C5.0469 3.80949 5.03145 3.79936 5.01435 3.79265ZM4.94045 3.00107C5.06338 2.99776 5.18577 3.0192 5.30031 3.06416C5.41715 3.11002 5.52336 3.17941 5.61228 3.26805C5.70121 3.35669 5.77095 3.46271 5.81711 3.57953C5.86242 3.69422 5.88401 3.81687 5.8806 3.9401C5.8788 4.18525 5.78031 4.4197 5.60666 4.5928C5.43142 4.76748 5.19402 4.86538 4.94674 4.86538C4.9398 4.86538 4.93338 4.86815 4.92885 4.87267C4.92436 4.87714 4.92206 4.88294 4.92206 4.88874C4.92206 5.13638 4.82336 5.3736 4.64809 5.54831C4.47287 5.72297 4.23548 5.82091 3.98817 5.82091H3.98198L3.97579 5.82071C3.73426 5.81306 3.50448 5.71399 3.33326 5.54332C3.162 5.3726 3.06218 5.14303 3.05447 4.90121L3.05428 4.89498V4.88874C3.05428 4.38769 3.25397 3.90742 3.60901 3.55351C3.96252 3.20112 4.44121 3.00273 4.94045 3.00107Z" fill="#F77041"/>
<path id="Vector_3" d="M4.94706 3.39163H9.57714C9.64907 3.38911 9.72075 3.40137 9.78773 3.42766C9.8547 3.45395 9.91552 3.49371 9.96642 3.54444C10.0173 3.59517 10.0572 3.6558 10.0836 3.72256C10.11 3.78932 10.1223 3.86078 10.1197 3.93249C10.1197 4.07593 10.0626 4.21349 9.9608 4.31492C9.85905 4.41635 9.72104 4.47334 9.57714 4.47334H4.94706C4.80316 4.47334 4.66515 4.41635 4.5634 4.31492C4.46164 4.21349 4.40448 4.07593 4.40448 3.93249C4.40195 3.86078 4.41426 3.78932 4.44063 3.72256C4.467 3.6558 4.50688 3.59517 4.55777 3.54444C4.60867 3.49371 4.6695 3.45395 4.73647 3.42766C4.80345 3.40137 4.87513 3.38911 4.94706 3.39163Z" fill="#F77041"/>
<path id="Vector_4" fill-rule="evenodd" clip-rule="evenodd" d="M4.93338 3.78269C4.91493 3.78204 4.89658 3.78519 4.87947 3.79191C4.86237 3.79862 4.84691 3.80874 4.83404 3.82158C4.82117 3.8344 4.81117 3.84965 4.80458 3.86634C4.79798 3.88302 4.79492 3.90085 4.79555 3.91871L4.79579 3.9256V3.93249C4.79579 3.97174 4.81142 4.00964 4.83966 4.03779C4.86794 4.06597 4.90655 4.08203 4.94707 4.08203H9.57715C9.61767 4.08203 9.65629 4.06597 9.68456 4.03779C9.7128 4.00964 9.72843 3.97174 9.72843 3.93249V3.9256L9.72867 3.91871C9.7293 3.90085 9.72624 3.88302 9.71964 3.86634C9.71306 3.84967 9.70306 3.83441 9.69018 3.82158C9.67729 3.80873 9.66184 3.79862 9.64475 3.79191C9.62765 3.78519 9.60929 3.78204 9.59084 3.78269L9.58399 3.78293H4.94707V3.39163L4.93338 3.78269ZM4.95298 3.00032C4.83018 2.99707 4.70792 3.0185 4.5935 3.06342C4.47666 3.10928 4.37045 3.17867 4.28153 3.2673C4.1926 3.35595 4.12286 3.46196 4.07671 3.57879C4.0314 3.69348 4.0098 3.81613 4.01321 3.93935C4.01501 4.1845 4.1135 4.41896 4.28716 4.59206C4.46239 4.76673 4.69979 4.86464 4.94707 4.86464H9.57715C9.82443 4.86464 10.0618 4.76673 10.2371 4.59206C10.4107 4.41896 10.5092 4.1845 10.511 3.93936C10.5144 3.81613 10.4928 3.69348 10.4475 3.57879C10.4014 3.46194 10.3316 3.35593 10.2427 3.2673C10.1538 3.17868 10.0476 3.10929 9.93072 3.06342C9.8163 3.0185 9.69405 2.99707 9.57124 3.00032H4.95298Z" fill="#F77041"/>
<path id="Vector_5" d="M3.93389 4.34779C4.00582 4.34527 4.07751 4.35754 4.14449 4.38383C4.21146 4.41012 4.27228 4.44987 4.32318 4.5006C4.37407 4.55134 4.41395 4.61197 4.44032 4.67873C4.4667 4.74549 4.47901 4.81695 4.47648 4.88865V9.46791C4.47648 9.61135 4.41932 9.74891 4.31756 9.85034C4.21581 9.95177 4.07779 10.0088 3.93389 10.0088C3.79142 10.0043 3.65603 9.94582 3.55524 9.84535C3.45445 9.74488 3.39583 9.60992 3.3913 9.46791V4.88865C3.3913 4.74521 3.44847 4.60763 3.55022 4.5062C3.65198 4.40477 3.78999 4.34779 3.93389 4.34779Z" fill="#F77041"/>
<path id="Vector_6" fill-rule="evenodd" clip-rule="evenodd" d="M4.0015 4.74807C3.9844 4.74136 3.96604 4.73821 3.94758 4.73885L3.93389 4.34779V4.73909C3.89336 4.73909 3.85475 4.75515 3.82648 4.78334C3.79825 4.81148 3.78261 4.84939 3.78261 4.88865V9.45984C3.78498 9.50044 3.80223 9.53904 3.83149 9.56821C3.86036 9.59699 3.89889 9.61451 3.93997 9.61733C3.97826 9.61581 4.01445 9.59998 4.04131 9.57321C4.06955 9.54506 4.08518 9.50716 4.08518 9.46791V4.88176L4.08542 4.87487C4.08605 4.85704 4.08299 4.83921 4.07639 4.8225C4.06979 4.80581 4.05979 4.79056 4.04693 4.77774C4.03404 4.7649 4.01859 4.75478 4.0015 4.74807ZM3.92707 3.95651C4.05017 3.95312 4.17276 3.97455 4.28747 4.01958C4.40432 4.06545 4.51052 4.13484 4.59943 4.22347C4.68836 4.31211 4.7581 4.41813 4.80426 4.53495C4.84944 4.64933 4.87106 4.77165 4.86779 4.89458V9.46791C4.86779 9.71554 4.76909 9.95276 4.59381 10.1275C4.41858 10.3022 4.18117 10.4001 3.93389 10.4001H3.9277L3.9215 10.3999C3.67999 10.3922 3.45022 10.2932 3.27899 10.1225C3.10773 9.95177 3.00791 9.7222 3.0002 9.48037L3 9.47414V4.88865C3 4.64103 3.09869 4.40379 3.27397 4.22907C3.44759 4.056 3.68225 3.95829 3.92707 3.95651Z" fill="#F77041"/>
</g>
<g id="RightBottomCorner">
<path id="Vector_7" d="M20.106 18.4694C20.2499 18.4694 20.3879 18.5265 20.4897 18.6279C20.5914 18.7294 20.6486 18.8668 20.6486 19.0103C20.6486 19.2068 20.6098 19.4013 20.5343 19.5829C20.4589 19.7644 20.3483 19.9294 20.2089 20.0684C20.0695 20.2073 19.904 20.3176 19.7219 20.3928C19.5398 20.468 19.3446 20.5066 19.1474 20.5066C19.0035 20.5066 18.8655 20.4497 18.7638 20.3483C18.662 20.2469 18.6049 20.1092 18.6049 19.9658C18.6023 19.8941 18.6146 19.8226 18.641 19.7558C18.6674 19.6891 18.7073 19.6285 18.7582 19.5777C18.8091 19.527 18.8699 19.4872 18.9369 19.4609C19.0038 19.4347 19.0755 19.4225 19.1474 19.425C19.2578 19.425 19.3636 19.3812 19.4416 19.3035C19.5196 19.2257 19.5634 19.1202 19.5634 19.0103C19.5609 18.9386 19.5732 18.8671 19.5996 18.8003C19.626 18.7336 19.6658 18.673 19.7167 18.6223C19.7676 18.5716 19.8285 18.5317 19.8954 18.5054C19.9624 18.4791 20.0341 18.4669 20.106 18.4694Z" fill="#F77041"/>
<path id="Vector_8" fill-rule="evenodd" clip-rule="evenodd" d="M20.0923 18.8605C20.0739 18.8598 20.0555 18.863 20.0384 18.8697C20.0213 18.8764 20.0058 18.8865 19.993 18.8993C19.9801 18.9122 19.9701 18.9274 19.9635 18.9441C19.9569 18.9608 19.9539 18.9786 19.9545 18.9965L19.9547 19.0034V19.0103C19.9547 19.2244 19.8694 19.4295 19.7178 19.5806C19.5664 19.7316 19.3612 19.8162 19.1474 19.8162H19.1406L19.1338 19.816C19.1153 19.8153 19.0969 19.8185 19.0798 19.8252C19.0627 19.8319 19.0473 19.842 19.0344 19.8549C19.0215 19.8677 19.0115 19.8829 19.0049 19.8996C18.9984 19.9163 18.9953 19.9341 18.9959 19.952L18.9962 19.9589V19.9658C18.9962 20.005 19.0118 20.0429 19.04 20.0711C19.0683 20.0993 19.1069 20.1153 19.1474 20.1153C19.2934 20.1153 19.4378 20.0867 19.5726 20.031C19.7073 19.9754 19.8297 19.8939 19.9327 19.7912C20.0357 19.6885 20.1173 19.5667 20.173 19.4327C20.2287 19.2988 20.2573 19.1552 20.2573 19.0103C20.2573 18.971 20.2417 18.9331 20.2134 18.905C20.1851 18.8768 20.1465 18.8607 20.106 18.8607V18.4694L20.0923 18.8605ZM20.1128 18.0781C19.9897 18.0747 19.8671 18.0962 19.7524 18.1412C19.6356 18.1871 19.5294 18.2564 19.4405 18.3451C19.3515 18.4337 19.2818 18.5397 19.2356 18.6566C19.1909 18.7698 19.1693 18.8907 19.172 19.0123C19.1721 19.0116 19.1721 19.0109 19.1721 19.0103H19.5634L19.1724 19.024C19.1722 19.0201 19.1721 19.0162 19.172 19.0123M19.1496 19.0335C19.0281 19.0308 18.9071 19.0522 18.7939 19.0967C18.677 19.1426 18.5708 19.2119 18.4819 19.3006C18.393 19.3892 18.3232 19.4952 18.2771 19.6121C18.2318 19.7268 18.2102 19.8494 18.2136 19.9726C18.2154 20.2178 18.3139 20.4522 18.4875 20.6253C18.6627 20.8 18.9001 20.8979 19.1474 20.8979C19.3958 20.8979 19.6418 20.8492 19.8713 20.7544C20.1008 20.6596 20.3094 20.5207 20.4852 20.3455C20.661 20.1703 20.8005 19.9622 20.8957 19.733C20.9909 19.5039 21.0399 19.2583 21.0399 19.0103C21.0399 18.7626 20.9412 18.5254 20.7659 18.3507C20.5923 18.1776 20.3577 18.0799 20.1128 18.0781M18.2136 19.9726C18.2136 19.9749 18.2137 19.9772 18.2138 19.9795L18.6049 19.9658H18.2136C18.2136 19.9681 18.2136 19.9703 18.2136 19.9726ZM19.1496 19.0335C19.1535 19.0336 19.1573 19.0337 19.1611 19.0338L19.1474 19.4249V19.0336C19.1482 19.0336 19.1489 19.0336 19.1496 19.0335Z" fill="#F77041"/>
<path id="Vector_9" d="M14.5542 19.4248H19.1842C19.2562 19.4223 19.3279 19.4346 19.3948 19.4609C19.4618 19.4872 19.5226 19.5268 19.5735 19.5776C19.6244 19.6283 19.6643 19.6889 19.6907 19.7557C19.717 19.8225 19.7293 19.8939 19.7268 19.9656C19.7268 20.1091 19.6697 20.2466 19.5679 20.3481C19.4661 20.4495 19.3281 20.5065 19.1842 20.5065H14.5542C14.4103 20.5065 14.2723 20.4495 14.1705 20.3481C14.0687 20.2466 14.0116 20.1091 14.0116 19.9656C14.0091 19.8939 14.0214 19.8225 14.0477 19.7557C14.0741 19.6889 14.114 19.6283 14.1649 19.5776C14.2158 19.5268 14.2766 19.4872 14.3436 19.4609C14.4105 19.4346 14.4822 19.4223 14.5542 19.4248Z" fill="#F77041"/>
<path id="Vector_10" fill-rule="evenodd" clip-rule="evenodd" d="M14.5405 19.8158C14.522 19.8152 14.5037 19.8183 14.4866 19.8251C14.4695 19.8318 14.454 19.8419 14.4411 19.8547C14.4283 19.8675 14.4183 19.8828 14.4117 19.8995C14.4051 19.9162 14.402 19.934 14.4026 19.9519L14.4029 19.9587V19.9656C14.4029 20.0049 14.4185 20.0428 14.4467 20.0709C14.475 20.0991 14.5137 20.1152 14.5542 20.1152H19.1842C19.2247 20.1152 19.2634 20.0991 19.2916 20.0709C19.3199 20.0428 19.3355 20.0049 19.3355 19.9656V19.9587L19.3358 19.9519C19.3364 19.934 19.3333 19.9162 19.3267 19.8995C19.3201 19.8828 19.3101 19.8675 19.2973 19.8547C19.2844 19.8419 19.2689 19.8318 19.2518 19.8251C19.2347 19.8183 19.2164 19.8152 19.1979 19.8158L19.1911 19.8161H14.5542V19.4248L14.5405 19.8158ZM14.5601 19.0335C14.4373 19.0302 14.315 19.0516 14.2006 19.0966C14.0837 19.1424 13.9775 19.2118 13.8886 19.3004C13.7997 19.3891 13.7299 19.4951 13.6838 19.6119C13.6385 19.7266 13.6169 19.8493 13.6203 19.9725C13.6221 20.2176 13.7206 20.4521 13.8942 20.6252C14.0695 20.7999 14.3069 20.8978 14.5542 20.8978H19.1842C19.4315 20.8978 19.6689 20.7999 19.8442 20.6252C20.0178 20.4521 20.1163 20.2176 20.1181 19.9725C20.1215 19.8493 20.0999 19.7266 20.0546 19.6119C20.0084 19.4951 19.9387 19.3891 19.8498 19.3004C19.7609 19.2118 19.6546 19.1424 19.5378 19.0966C19.4234 19.0516 19.3011 19.0302 19.1783 19.0335H14.5601Z" fill="#F77041"/>
<path id="Vector_11" d="M20.1056 13.8916C20.2495 13.8916 20.3875 13.9486 20.4893 14.05C20.591 14.1514 20.6482 14.2891 20.6482 14.4325V19.0118C20.6482 19.1552 20.591 19.2928 20.4893 19.3942C20.3875 19.4957 20.2495 19.5527 20.1056 19.5527C20.0337 19.5552 19.962 19.5428 19.895 19.5165C19.8281 19.4902 19.7672 19.4506 19.7163 19.3998C19.6654 19.3491 19.6256 19.2885 19.5992 19.2217C19.5728 19.155 19.5605 19.0835 19.563 19.0118V14.4325C19.5605 14.3608 19.5728 14.2893 19.5992 14.2225C19.6256 14.1558 19.6654 14.0951 19.7163 14.0444C19.7672 13.9937 19.8281 13.9539 19.895 13.9276C19.962 13.9013 20.0337 13.8891 20.1056 13.8916Z" fill="#F77041"/>
<path id="Vector_12" fill-rule="evenodd" clip-rule="evenodd" d="M20.0919 14.2826C20.0735 14.282 20.0551 14.2853 20.038 14.292C20.0209 14.2987 20.0055 14.3087 19.9926 14.3215C19.9797 14.3344 19.9697 14.3497 19.9631 14.3664C19.9565 14.3831 19.9535 14.4008 19.9541 14.4187L19.9543 14.4256V19.0186L19.9541 19.0255C19.9535 19.0433 19.9565 19.0613 19.9631 19.078C19.9697 19.0946 19.9797 19.1098 19.9926 19.1226C20.0055 19.1354 20.0209 19.1457 20.038 19.1524C20.0551 19.1591 20.0735 19.1621 20.0919 19.1615L20.0988 19.1613H20.1056C20.1461 19.1613 20.1847 19.1452 20.213 19.117C20.2413 19.0889 20.2569 19.051 20.2569 19.0117V14.4325C20.2569 14.3933 20.2413 14.3553 20.213 14.3271C20.1848 14.2989 20.1462 14.2829 20.1056 14.2829V13.8917L20.0919 14.2826ZM20.1124 13.5003C19.9893 13.4969 19.8668 13.5183 19.7521 13.5634C19.6352 13.6092 19.529 13.6787 19.4401 13.7674C19.3512 13.856 19.2814 13.9619 19.2353 14.0787C19.1901 14.1931 19.1685 14.3155 19.1717 14.4384V19.0058C19.1685 19.1287 19.1901 19.251 19.2353 19.3654C19.2814 19.4822 19.3512 19.5882 19.4401 19.6769C19.529 19.7655 19.6352 19.8349 19.7521 19.8808C19.8668 19.9258 19.9893 19.9473 20.1124 19.9439C20.3573 19.9422 20.5919 19.8443 20.7655 19.6713C20.9408 19.4966 21.0395 19.2593 21.0395 19.0117V14.4325C21.0395 14.1849 20.9408 13.9477 20.7655 13.773C20.5919 13.5999 20.3573 13.5021 20.1124 13.5003Z" fill="#F77041"/>
</g>
<g id="RightTopCorner">
<path id="Vector_13" d="M19.1451 3.3913C19.5417 3.39598 19.9208 3.55514 20.2014 3.83476C20.4819 4.11437 20.6415 4.49226 20.6462 4.88766C20.6462 5.03111 20.5891 5.16868 20.4873 5.27011C20.3856 5.37154 20.2475 5.42853 20.1036 5.42853C20.0317 5.43104 19.96 5.41878 19.893 5.39249C19.8261 5.3662 19.7653 5.32645 19.7144 5.27571C19.6635 5.22498 19.6236 5.16435 19.5972 5.09759C19.5708 5.03083 19.5585 4.95937 19.5611 4.88766C19.5566 4.77911 19.5114 4.6762 19.4343 4.59938C19.3572 4.52256 19.254 4.47745 19.1451 4.47302C19.0731 4.47553 19.0015 4.46327 18.9345 4.43698C18.8675 4.41069 18.8067 4.37093 18.7558 4.3202C18.7049 4.26947 18.665 4.20884 18.6386 4.14208C18.6123 4.07532 18.6 4.00386 18.6025 3.93215C18.6025 3.78871 18.6596 3.65115 18.7614 3.54972C18.8632 3.44829 19.0012 3.3913 19.1451 3.3913Z" fill="#F77041"/>
<path id="Vector_14" fill-rule="evenodd" clip-rule="evenodd" d="M19.1433 3.78262C19.1034 3.78308 19.0655 3.79908 19.0377 3.82685C19.0094 3.855 18.9938 3.8929 18.9938 3.93215V3.93904L18.9935 3.94593C18.9929 3.96379 18.996 3.98162 19.0026 3.9983C19.0092 4.01497 19.0192 4.03023 19.032 4.04307C19.0449 4.05591 19.0604 4.06602 19.0775 4.07273C19.0946 4.07945 19.1129 4.0826 19.1314 4.08195L19.1462 4.08143L19.161 4.08203C19.3677 4.09045 19.5639 4.17606 19.7105 4.32224C19.8572 4.46844 19.9435 4.66453 19.952 4.87164L19.9526 4.88654L19.9521 4.90144C19.9515 4.91931 19.9546 4.93713 19.9611 4.95381C19.9677 4.97051 19.9777 4.98575 19.9906 4.99858C20.0035 5.01142 20.0189 5.02153 20.036 5.02824C20.0531 5.03496 20.0715 5.03811 20.09 5.03746L20.0968 5.03722H20.1036C20.1442 5.03722 20.1828 5.02116 20.2111 4.99298C20.2389 4.96526 20.2545 4.92806 20.2549 4.88942C20.2507 4.59763 20.1326 4.31867 19.9251 4.11189C19.7176 3.90506 19.4372 3.78683 19.1433 3.78262ZM19.1451 3.3913V3C18.8978 3 18.6604 3.09791 18.4852 3.27258C18.3115 3.44568 18.213 3.68014 18.2112 3.92529C18.2078 4.04851 18.2294 4.17116 18.2747 4.28585C18.3209 4.4027 18.3906 4.50871 18.4795 4.59734C18.5684 4.68596 18.6746 4.75535 18.7915 4.80122C18.9009 4.84417 19.0175 4.86566 19.1349 4.86461C19.1438 4.86614 19.1518 4.87035 19.158 4.87652C19.1641 4.88257 19.168 4.89014 19.1695 4.89814C19.1685 5.01552 19.1901 5.13206 19.2333 5.24136C19.2794 5.35819 19.3492 5.4642 19.4381 5.55285C19.527 5.64147 19.6332 5.71086 19.7501 5.75674C19.8648 5.80176 19.9874 5.82319 20.1105 5.81981C20.3553 5.81802 20.5899 5.72032 20.7636 5.54725C20.9388 5.37253 21.0375 5.13529 21.0375 4.88766V4.88302C21.0316 4.38504 20.8305 3.90939 20.4776 3.55762C20.1248 3.20589 19.6481 3.00591 19.1497 3.00003L19.1451 3.3913Z" fill="#F77041"/>
<path id="Vector_15" d="M20.1036 4.27445C20.174 4.27441 20.2437 4.28851 20.3086 4.31591C20.3734 4.3433 20.4321 4.38342 20.481 4.4339C20.53 4.48437 20.5682 4.54417 20.5935 4.60969C20.6187 4.67522 20.6305 4.74515 20.6281 4.81531V9.43062C20.6426 9.50865 20.6396 9.58891 20.6195 9.66569C20.5994 9.74247 20.5626 9.81388 20.5116 9.87488C20.4607 9.93589 20.397 9.98498 20.3249 10.0187C20.2528 10.0523 20.1742 10.0698 20.0945 10.0698C20.0149 10.0698 19.9363 10.0523 19.8642 10.0187C19.7921 9.98498 19.7284 9.93589 19.6775 9.87488C19.6265 9.81388 19.5897 9.74247 19.5696 9.66569C19.5495 9.58891 19.5465 9.50865 19.561 9.43062V4.81531C19.5585 4.74361 19.5708 4.67215 19.5972 4.60539C19.6235 4.53863 19.6634 4.478 19.7143 4.42727C19.7652 4.37653 19.826 4.33678 19.893 4.31049C19.96 4.2842 20.0317 4.27193 20.1036 4.27445Z" fill="#F77041"/>
<path id="Vector_16" fill-rule="evenodd" clip-rule="evenodd" d="M20.0899 4.66552C20.0714 4.66487 20.0531 4.66802 20.036 4.67474C20.0189 4.68144 20.0034 4.69156 19.9906 4.7044C19.9777 4.71723 19.9677 4.73247 19.9611 4.74916C19.9545 4.76585 19.9514 4.78367 19.9521 4.80154L19.9523 4.80842V9.4666L19.9457 9.50199C19.9418 9.52341 19.9426 9.54541 19.9481 9.56647C19.9536 9.58752 19.9637 9.60722 19.9779 9.62413C19.992 9.64105 20.0097 9.65474 20.0299 9.66416C20.0501 9.6736 20.0722 9.67851 20.0945 9.67851C20.1169 9.67851 20.139 9.6736 20.1592 9.66416C20.1794 9.65474 20.1971 9.64105 20.2112 9.62413C20.2253 9.60722 20.2355 9.58752 20.241 9.56647C20.2465 9.54541 20.2473 9.52341 20.2433 9.50199L20.2368 9.4666V4.80854L20.237 4.80178C20.2376 4.78429 20.2347 4.76685 20.2284 4.75049C20.2221 4.73408 20.2125 4.71904 20.2001 4.70631C20.1878 4.6936 20.1729 4.68338 20.1563 4.67636C20.1397 4.66936 20.1219 4.66575 20.1038 4.66576L20.1036 4.27445L20.0899 4.66552ZM20.1103 3.88317C19.9872 3.8798 19.8647 3.90123 19.75 3.94624C19.6332 3.99211 19.527 4.0615 19.4381 4.15013C19.3491 4.23878 19.2794 4.34479 19.2332 4.46162C19.188 4.57602 19.1664 4.69834 19.1697 4.82125V9.39954C19.1526 9.5214 19.1598 9.64559 19.1911 9.76491C19.2258 9.89741 19.2893 10.0206 19.3771 10.1256C19.4648 10.2307 19.5745 10.3152 19.6985 10.3732C19.8225 10.4311 19.9577 10.4611 20.0945 10.4611C20.2314 10.4611 20.3666 10.4311 20.4905 10.3732C20.6146 10.3152 20.7243 10.2307 20.812 10.1256C20.8998 10.0206 20.9633 9.89741 20.998 9.76491C21.0293 9.64559 21.0365 9.5214 21.0194 9.39954V4.82114C21.0225 4.7009 21.0019 4.5812 20.9586 4.4689C20.9144 4.35426 20.8475 4.2497 20.7619 4.16148C20.6764 4.07325 20.5739 4.00323 20.4609 3.95545C20.3499 3.90857 20.2308 3.88401 20.1103 3.88317Z" fill="#F77041"/>
<path id="Vector_17" d="M14.5508 3.3913H19.1451C19.2875 3.39582 19.4226 3.45424 19.5234 3.55471C19.6242 3.65518 19.6828 3.79014 19.6873 3.93215C19.6873 4.0756 19.6302 4.21317 19.5284 4.3146C19.4267 4.41603 19.289 4.47302 19.1451 4.47302H14.5508C14.4789 4.47553 14.4072 4.46327 14.3402 4.43698C14.2733 4.41069 14.2125 4.37093 14.1616 4.3202C14.1107 4.26947 14.0708 4.20884 14.0444 4.14208C14.018 4.07532 14.0057 4.00386 14.0083 3.93215C14.0083 3.78871 14.0654 3.65115 14.1672 3.54972C14.2689 3.44829 14.4069 3.3913 14.5508 3.3913Z" fill="#F77041"/>
<path id="Vector_18" fill-rule="evenodd" clip-rule="evenodd" d="M14.5508 3.78261C14.5103 3.78261 14.4717 3.79867 14.4434 3.82685C14.4152 3.855 14.3996 3.8929 14.3996 3.93215V3.93904L14.3993 3.94593C14.3987 3.96377 14.4017 3.9816 14.4083 3.9983C14.4149 4.01499 14.4249 4.03024 14.4378 4.04306C14.4507 4.05591 14.4661 4.06602 14.4832 4.07273C14.5003 4.07945 14.5187 4.0826 14.5372 4.08195L14.544 4.08171H19.1447C19.1853 4.08171 19.2239 4.06565 19.2522 4.03747C19.2789 4.01079 19.2944 3.97533 19.2959 3.93826C19.2931 3.89838 19.2759 3.86055 19.2471 3.83185C19.2178 3.80262 19.1785 3.78501 19.1368 3.78261H14.5508ZM13.8909 3.27258C14.0662 3.0979 14.3036 3 14.5508 3H19.1509L19.1571 3.0002C19.3986 3.00784 19.6284 3.10688 19.7996 3.27757C19.9709 3.44829 20.0707 3.67786 20.0784 3.91969L20.0786 3.92592V3.93215C20.0786 4.17978 19.9799 4.41702 19.8047 4.59174C19.6294 4.76642 19.392 4.86432 19.1447 4.86432H14.5567C14.4339 4.86757 14.3117 4.84614 14.1973 4.80122C14.0804 4.75535 13.9742 4.68596 13.8853 4.59734C13.7964 4.50869 13.7266 4.40268 13.6805 4.28585C13.6352 4.17118 13.6136 4.04854 13.617 3.92529C13.6188 3.68014 13.7173 3.44568 13.8909 3.27258Z" fill="#F77041"/>
</g>
<g id="LeftBottomCorner">
<path id="Vector_19" d="M3.93451 18.4715C4.07525 18.4762 4.20866 18.5353 4.30653 18.6362C4.40441 18.7371 4.45909 18.872 4.45901 19.0124C4.45901 19.1224 4.50283 19.2279 4.58084 19.3056C4.65886 19.3834 4.76467 19.4271 4.87499 19.4271C5.01889 19.4271 5.1569 19.4841 5.25866 19.5856C5.36041 19.687 5.41758 19.8245 5.41758 19.9679C5.4201 20.0396 5.4078 20.1111 5.38142 20.1778C5.35505 20.2446 5.31518 20.3053 5.26428 20.3561C5.21338 20.4068 5.15255 20.4464 5.08558 20.4727C5.01861 20.499 4.94693 20.5114 4.87499 20.5089C4.48 20.5041 4.10281 20.3443 3.82519 20.0642C3.54757 19.7841 3.39189 19.4062 3.39192 19.0124C3.39192 18.869 3.44909 18.7315 3.55084 18.6301C3.6526 18.5286 3.7906 18.4715 3.93451 18.4715Z" fill="#F77041"/>
<path id="Vector_20" fill-rule="evenodd" clip-rule="evenodd" d="M3.92801 18.8631C3.8899 18.8647 3.85388 18.8805 3.8271 18.9072C3.79887 18.9353 3.78324 18.9731 3.78324 19.0124C3.78322 19.3028 3.89801 19.5818 4.10312 19.7887C4.30828 19.9957 4.58728 20.114 4.8797 20.1175L4.8887 20.1176C4.90715 20.1183 4.9255 20.1152 4.94261 20.1085C4.95971 20.1018 4.97517 20.0917 4.98804 20.0788C5.0009 20.066 5.01091 20.0508 5.0175 20.0341C5.02409 20.0174 5.02715 19.9997 5.02652 19.9818L5.02628 19.9748V19.9679C5.02628 19.9287 5.01065 19.8908 4.98241 19.8626C4.95416 19.8344 4.91555 19.8184 4.875 19.8184C4.66129 19.8184 4.45609 19.7338 4.3046 19.5828C4.15305 19.4317 4.06771 19.2265 4.06771 19.0124C4.06774 18.974 4.05279 18.9366 4.02563 18.9086C3.99992 18.8821 3.96517 18.8659 3.92801 18.8631ZM3.93452 18.4715V18.0802C3.68721 18.0802 3.44982 18.1782 3.2746 18.3528C3.09933 18.5275 3.00064 18.7647 3.00063 19.0124M3.93452 18.4715L3.94752 18.0805C4.18942 18.0886 4.41891 18.19 4.58745 18.3638C4.756 18.5376 4.8504 18.7701 4.85032 19.0124C4.85032 19.0182 4.85263 19.024 4.85711 19.0285C4.86164 19.033 4.86806 19.0359 4.875 19.0359C5.12226 19.0359 5.35967 19.1336 5.53492 19.3083C5.70857 19.4814 5.80706 19.716 5.80887 19.9611C5.81227 20.0844 5.79068 20.2069 5.74537 20.3216C5.69922 20.4384 5.62947 20.5445 5.54054 20.6332C5.45162 20.7218 5.34542 20.7911 5.22857 20.837C5.11325 20.8823 4.98996 20.9037 4.86617 20.9C4.37012 20.893 3.89639 20.6919 3.54727 20.3396C3.19715 19.9864 3.0006 19.5095 3.00063 19.0124" fill="#F77041"/>
<path id="Vector_21" d="M3.93421 13.8917C4.07811 13.8917 4.21612 13.9486 4.31787 14.0501C4.41963 14.1515 4.47679 14.289 4.47679 14.4324V19.0658C4.47227 19.2079 4.41365 19.3428 4.31286 19.4433C4.21207 19.5438 4.07667 19.6021 3.93421 19.6066C3.7903 19.6066 3.6523 19.5497 3.55054 19.4483C3.44879 19.3469 3.39162 19.2093 3.39162 19.0658V14.4324C3.3891 14.3607 3.4014 14.2893 3.42777 14.2225C3.45415 14.1557 3.49402 14.0952 3.54492 14.0445C3.59582 13.9937 3.65665 13.9539 3.72362 13.9276C3.79059 13.9013 3.86227 13.8891 3.93421 13.8917Z" fill="#F77041"/>
<path id="Vector_22" fill-rule="evenodd" clip-rule="evenodd" d="M3.92052 14.2827C3.90207 14.2821 3.88371 14.2852 3.8666 14.2919C3.8495 14.2987 3.83404 14.3087 3.82117 14.3215C3.80831 14.3343 3.7983 14.3497 3.79171 14.3664C3.78512 14.3831 3.78206 14.4008 3.78268 14.4186L3.78293 14.4255V19.0658C3.78293 19.1051 3.79857 19.143 3.82679 19.1712C3.85364 19.1979 3.88982 19.2138 3.92813 19.2153C3.96921 19.2125 4.00774 19.1948 4.03661 19.1661C4.06586 19.1369 4.08311 19.0984 4.08549 19.0578V14.4324C4.08549 14.3932 4.06985 14.3552 4.04162 14.3271C4.01335 14.2989 3.97473 14.2829 3.93421 14.2829V13.8917L3.92052 14.2827ZM3.94103 13.5003C3.81792 13.4969 3.69534 13.5183 3.58064 13.5633C3.46379 13.6092 3.35759 13.6787 3.26867 13.7673C3.17974 13.856 3.10999 13.9619 3.06384 14.0787C3.01865 14.1931 2.99705 14.3154 3.00032 14.4383V19.0658C3.00032 19.3135 3.099 19.5507 3.27429 19.7254C3.44954 19.9001 3.68695 19.998 3.93421 19.998H3.9404L3.94659 19.9978C4.1881 19.9902 4.41788 19.8911 4.58912 19.7204C4.76039 19.5497 4.86019 19.32 4.8679 19.0782L4.8681 19.0721V14.4324C4.8681 14.1848 4.7694 13.9477 4.59413 13.7729C4.4205 13.5999 4.18585 13.5021 3.94103 13.5003Z" fill="#F77041"/>
<path id="Vector_23" d="M4.91202 19.427H9.524C9.66647 19.4315 9.80187 19.4898 9.90266 19.5903C10.0035 19.6908 10.0621 19.8258 10.0666 19.9678C10.0666 20.1113 10.0095 20.2489 9.90767 20.3503C9.80591 20.4517 9.6679 20.5086 9.524 20.5086H4.91202C4.76811 20.5086 4.6301 20.4517 4.52835 20.3503C4.4266 20.2489 4.36943 20.1113 4.36943 19.9678C4.37396 19.8258 4.43258 19.6908 4.53337 19.5903C4.63416 19.4898 4.76955 19.4315 4.91202 19.427Z" fill="#F77041"/>
<path id="Vector_24" fill-rule="evenodd" clip-rule="evenodd" d="M4.91202 19.427L4.89963 19.0359C4.65812 19.0435 4.42835 19.1425 4.25711 19.3132C4.08586 19.4839 3.98603 19.7134 3.97832 19.9553L3.97813 19.9615V19.9678C3.97813 20.2155 4.07681 20.4526 4.2521 20.6273C4.42735 20.802 4.66476 20.9 4.91202 20.9H9.524C9.77126 20.9 10.0087 20.802 10.184 20.6273C10.3592 20.4526 10.4579 20.2155 10.4579 19.9678V19.9615L10.4577 19.9553C10.45 19.7135 10.3502 19.4839 10.179 19.3132C10.0077 19.1425 9.77789 19.0435 9.53639 19.0359L9.5302 19.0357H4.91202V19.427ZM9.51602 19.8183H4.92C4.87821 19.8207 4.83894 19.8382 4.80962 19.8675C4.78082 19.8962 4.76367 19.934 4.76086 19.9739C4.76239 20.0109 4.77785 20.0465 4.8046 20.0732C4.83286 20.1013 4.87147 20.1173 4.91202 20.1173H9.524C9.56455 20.1173 9.60316 20.1013 9.63142 20.0732C9.65817 20.0465 9.67362 20.0109 9.67516 19.9739C9.67235 19.934 9.6552 19.8962 9.62641 19.8675C9.59709 19.8382 9.55781 19.8207 9.51602 19.8183Z" fill="#F77041"/>
</g>
</g>
</g>
<defs>
<clipPath id="clip0_8_244">
<rect width="24" height="24" fill="white"/>
</clipPath>
</defs>
</svg>
